<svg width="1200" height="750" viewBox="0 0 1200 750" fill="none" xmlns="http://www.w3.org/2000/svg">
<g clip-path="url(#clip0_592_1107)">
<rect width="1200" height="750" fill="#E5C28E"/>
<path d="M-167 264.06V661.4C-167 737.394 -105.395 799 -29.4002 799H1316.5C1392.49 799 1454.1 737.394 1454.1 661.4V119.6C1454.1 43.6056 1392.49 -18 1316.5 -18H726.04C686.149 -18 653.81 14.3384 653.81 54.2299C653.81 94.1213 621.472 126.46 581.581 126.46H-29.4C-105.394 126.46 -167 188.065 -167 264.06Z" fill="#E6BB7B"/>
<path d="M658.791 467.983H588.998C527.046 467.983 467.282 490.89 421.201 532.296L411.073 541.397C358.47 588.663 290.249 614.811 219.53 614.811H-80.3246C-128.194 614.811 -167 653.616 -167 701.486C-167 749.355 -128.194 788.161 -80.3246 788.161H1136.92C1270.06 788.161 1378 680.226 1378 547.081V377.993C1378 338.232 1345.77 306 1306.01 306H1217.21C1173.55 306 1131.22 321.055 1097.37 348.627C1063.52 376.199 1021.19 391.254 977.534 391.254H820.286C788.972 391.254 759.319 405.343 739.539 429.619C719.758 453.895 690.106 467.983 658.791 467.983Z" fill="#DFAF67"/>
<path d="M938.356 531.38V520.761H1253.97V829.998H401.015V723.379H683.916V531.38H938.356Z" fill="#4DB7D9"/>
<path fill-rule="evenodd" clip-rule="evenodd" d="M1227.63 440.427C1227.63 432.292 1234.22 425.697 1242.36 425.697H1348.54C1364.81 425.697 1378 438.886 1378 455.156V455.156L1378 527.28V527.28C1378 530.927 1375.04 533.883 1371.4 533.883H1178.59C1170.48 533.883 1163.91 540.454 1163.91 548.56V548.56C1163.91 556.666 1157.34 563.237 1149.24 563.237H958.746C952.646 563.237 947.701 568.181 947.701 574.281V574.281C947.701 580.381 952.646 585.325 958.746 585.325H1012.27C1015.79 585.325 1018.64 588.178 1018.64 591.697V591.697C1018.64 595.216 1015.79 598.068 1012.27 598.068H960.445C953.407 598.068 947.701 603.774 947.701 610.812V610.812C947.701 617.85 953.407 623.555 960.445 623.555H996.126C1001.99 623.555 1006.75 628.309 1006.75 634.174V634.174C1006.75 640.039 1011.5 644.794 1017.36 644.794H1038.6C1042.12 644.794 1044.98 647.646 1044.98 651.165V651.165C1044.98 654.684 1042.12 657.537 1038.6 657.537H1006.75H916.693H913.919C897.152 657.537 883.56 671.129 883.56 687.896V687.896C883.56 704.663 869.968 718.255 853.201 718.255H793.671C779.505 718.255 768.021 729.739 768.021 743.905V743.905C768.021 758.071 756.537 769.555 742.371 769.555H587.354C579.219 769.555 572.624 776.15 572.624 784.285V784.285C572.624 792.419 579.219 799.014 587.354 799.014H648.035C656.591 799.014 663.526 805.95 663.526 814.505V814.505C663.526 823.061 656.591 829.997 648.035 829.997H241.498C232.943 829.997 226.007 823.061 226.007 814.505V814.505C226.007 805.95 232.943 799.014 241.498 799.014H246.396C257.657 799.014 266.785 789.886 266.785 778.625V762.978C266.785 745.853 280.668 731.97 297.794 731.97H322.454C325.96 731.97 328.803 729.127 328.803 725.621V725.621C328.803 722.115 331.645 719.272 335.151 719.272H503.409C506.915 719.272 509.757 722.115 509.757 725.621V725.621C509.757 729.127 512.6 731.97 516.106 731.97H572.624L635.957 723.738C641.522 723.015 645.686 718.275 645.686 712.663V712.663C645.686 706.495 650.686 701.495 656.854 701.495H694.22C706.358 701.495 716.198 691.655 716.198 679.516V676.227C716.198 665.905 707.831 657.537 697.508 657.537H695.809C686.425 657.537 678.818 649.93 678.818 640.546V640.546C678.818 631.162 686.425 623.555 695.809 623.555H739.904C762.001 623.555 779.915 605.641 779.915 583.544V583.544C779.915 561.446 797.828 543.533 819.926 543.533H913.802C916.337 543.533 918.392 541.478 918.392 538.942V538.942C918.392 536.407 920.447 534.352 922.982 534.352H1024.21C1033.1 534.352 1040.3 527.146 1040.3 518.257V518.257C1040.3 509.368 1047.51 502.162 1056.4 502.162H1105.58C1118.56 502.162 1129.08 491.639 1129.08 478.659V478.659C1129.08 465.679 1139.6 455.156 1152.58 455.156H1212.9C1221.03 455.156 1227.63 448.562 1227.63 440.427V440.427Z" fill="#5FC6E7"/>
<path fill-rule="evenodd" clip-rule="evenodd" d="M1118.89 448.973C1118.89 435.132 1130.11 423.911 1143.95 423.911H1219.13C1246.82 423.911 1269.26 446.352 1269.26 474.035V474.035V509.716V509.716C1269.26 511.123 1268.12 512.265 1266.71 512.265H1093.28C1083.35 512.265 1077.35 523.237 1082.71 531.592V531.592C1088.07 539.947 1082.07 550.919 1072.14 550.919H867.632C856.489 550.919 847.455 559.953 847.455 571.096V571.096C847.455 582.239 856.489 591.273 867.632 591.273H873.154C887.347 591.273 898.853 602.779 898.853 616.972V617.609C898.853 632.154 887.062 643.945 872.517 643.945H829.675C813.924 643.945 801.154 656.714 801.154 672.466V672.466C801.154 688.217 788.385 700.986 772.634 700.986H667.476C660.603 700.986 655.032 706.558 655.032 713.431V713.431C655.032 720.304 660.603 725.876 667.476 725.876H700.948C707.26 725.876 712.376 730.992 712.376 737.304V737.304C712.376 743.615 707.26 748.732 700.948 748.732H380.905C372.071 748.732 364.909 755.893 364.909 764.727V764.727C364.909 773.562 372.071 780.723 380.905 780.723H500.413C514.02 780.723 525.05 791.753 525.05 805.36V805.36C525.05 818.967 514.02 829.997 500.413 829.997H203.919C190.313 829.997 179.282 818.967 179.282 805.36V797.289C179.282 788.14 186.699 780.723 195.848 780.723V780.723C204.998 780.723 212.415 773.306 212.415 764.157V729.699C212.415 727.587 214.126 725.876 216.238 725.876V725.876C218.349 725.876 220.061 724.164 220.061 722.053V713.795C220.061 707.123 225.469 701.715 232.141 701.715H316.91L412.352 711.9C415.993 712.289 416.939 717.153 413.708 718.877V718.877C410.293 720.699 411.588 725.876 415.458 725.876H491.917H556.048C567.549 725.876 576.873 716.552 576.873 705.051V705.051C576.873 693.549 586.196 684.226 597.698 684.226H602.784C617.094 684.226 628.695 672.625 628.695 658.315V634.929C628.695 626.249 635.732 619.212 644.412 619.212H646.159C653.874 619.212 660.129 612.958 660.129 605.242V601.043C660.129 595.647 664.503 591.273 669.899 591.273V591.273C675.294 591.273 679.668 586.899 679.668 581.503V558.768C679.668 540.817 694.221 526.264 712.173 526.264H818.146H874.641H1005.6C1012.33 526.264 1017.79 520.806 1017.79 514.074V503.158C1017.79 502.455 1018.36 501.884 1019.06 501.884V501.884C1019.77 501.884 1020.34 501.314 1020.34 500.61V487.959C1020.34 480.269 1026.57 474.035 1034.26 474.035H1093.83C1107.67 474.035 1118.89 462.814 1118.89 448.973V448.973Z" fill="#98E0F7"/>
<path fill-rule="evenodd" clip-rule="evenodd" d="M796.057 464.492C796.057 451.714 806.415 441.355 819.193 441.355H964.693H1028.83C1040.31 441.355 1043.22 425.437 1032.48 421.379L1027.98 419.678C1016.34 415.274 1019.49 398 1031.95 398H1150.74H1295.81C1320.56 398 1340.62 418.064 1340.62 442.814C1340.62 467.564 1320.56 487.628 1295.81 487.628H1293.56C1296.08 483.1 1297.45 477.958 1297.45 472.662C1297.45 454.183 1282.47 439.203 1263.99 439.203H1143.98C1132.96 439.203 1125 449.739 1128.01 460.34C1131.11 471.28 1122.55 482.032 1111.19 481.455L1057.47 478.727C1039.44 477.811 1024.31 492.186 1024.31 510.244V511.073C1024.31 521.901 1018.71 531.421 1010.25 536.894C1010.21 536.919 1010.17 536.932 1010.12 536.932H776.772C766.393 536.932 757.979 545.345 757.979 555.724C757.979 566.103 766.393 574.517 776.772 574.517H810.49C814.994 574.517 818.145 579.155 818.145 583.659C818.145 587.263 815.551 590.77 811.947 590.77H699.117C685.091 590.77 673.721 602.14 673.721 616.166C673.721 630.192 685.091 641.562 699.117 641.562H760.68C772.64 641.562 776.964 654.259 765.003 654.259H651.231C642.287 654.259 640.005 666.658 648.363 669.841C656.443 672.919 654.658 684.831 646.032 685.406L605.806 688.086C597.651 688.629 591.314 695.402 591.314 703.575V708.202C591.314 720.487 581.356 730.446 569.071 730.446H468.993C467.81 730.446 466.63 730.573 465.45 730.701C464.27 730.828 463.09 730.955 461.907 730.955H395.267C389.377 730.955 384.601 726.18 384.601 720.289C384.601 714.398 379.826 709.623 373.935 709.623H243.887C224.774 709.623 221.078 736.751 239.494 741.864C255.221 746.23 253.814 768.977 237.668 771.37L213.585 774.941C188.744 778.623 191.446 815.269 216.558 815.269H451.18C454.181 816.535 456.401 819.298 456.401 822.622C456.401 826.695 453.098 829.997 449.025 829.997H34.8579C-9.24636 829.997 -45 794.244 -45 750.139C-45 706.035 -9.2464 670.281 34.8579 670.281H303.539C313.504 670.281 321.582 662.203 321.582 652.239C321.582 642.274 329.66 634.196 339.625 634.196H481.505C488.663 634.196 494.466 628.393 494.466 621.235C494.466 614.077 500.268 608.274 507.427 608.274H627.422C633.811 608.274 638.961 602.972 639.955 596.661C641.224 588.604 635.47 580.612 627.313 580.612H512.179C492.543 580.612 476.625 564.694 476.625 545.058C476.625 525.422 492.543 509.504 512.179 509.504H749.756C754.213 509.504 757.827 505.89 757.827 501.433V495.051C757.827 488.867 762.84 483.853 769.025 483.853H783.585C790.389 483.853 796.057 471.296 796.057 464.492Z" fill="white"/>
<path fill-rule="evenodd" clip-rule="evenodd" d="M1061.97 460.065C1061.97 454.174 1066.74 449.398 1072.63 449.398H1102.27C1108.16 449.398 1112.94 454.174 1112.94 460.065C1112.94 465.955 1108.16 470.731 1102.27 470.731H1072.63C1066.74 470.731 1061.97 465.955 1061.97 460.065ZM351.363 647.5C345.472 647.5 340.696 652.276 340.696 658.166C340.696 664.057 345.472 668.832 351.363 668.832H381.003C386.894 668.832 391.67 664.057 391.67 658.166C391.67 652.276 386.894 647.5 381.003 647.5H351.363ZM23.8135 714.379C23.8135 703.337 32.7643 694.386 43.8057 694.386H169.726C183.148 694.386 194.029 705.267 194.029 718.69V724.845C194.029 730.645 197.424 735.906 202.708 738.296C217.188 744.845 212.516 766.51 196.624 766.51H96.0865C87.2115 766.51 80.0168 759.316 80.0168 750.441C80.0168 741.565 72.8221 734.371 63.9471 734.371H43.8057C32.7643 734.371 23.8135 725.42 23.8135 714.379ZM118.963 790.049C118.963 784.159 123.739 779.383 129.63 779.383H159.27C165.161 779.383 169.936 784.159 169.936 790.049C169.936 795.94 165.161 800.716 159.27 800.716H129.63C123.739 800.716 118.963 795.94 118.963 790.049ZM784.135 494.277C779.928 494.277 776.517 497.688 776.517 501.896C776.517 506.103 779.928 509.514 784.135 509.514H819.871C824.079 509.514 827.49 506.103 827.49 501.896C827.49 497.688 824.079 494.277 819.871 494.277H784.135ZM508.058 545.059C508.058 534.119 516.927 525.251 527.867 525.251H630.125C641.065 525.251 649.933 534.119 649.933 545.059C649.933 556 641.065 564.868 630.125 564.868H527.867C516.927 564.868 508.058 556 508.058 545.059ZM1008.44 495.715C1008.44 481.268 996.733 469.557 982.287 469.557H925.099C917.876 469.557 912.02 475.413 912.02 482.636C912.02 489.859 917.876 495.715 925.099 495.715H932.499C939.722 495.715 945.578 501.57 945.578 508.793C945.578 516.017 951.433 521.872 958.656 521.872H982.287C996.733 521.872 1008.44 510.161 1008.44 495.715ZM524.216 668.736C520.219 668.736 516.979 665.495 516.979 661.498C516.979 657.5 520.219 654.26 524.216 654.26H608.224C615.307 654.26 621.049 660.002 621.049 667.085C621.049 674.168 615.307 679.91 608.224 679.91H587.537C581.146 679.91 574.906 677.961 569.651 674.323C564.396 670.685 558.156 668.736 551.764 668.736H524.216ZM465.683 681.18C455.304 681.18 446.891 689.594 446.891 699.973C446.891 710.352 455.304 718.766 465.683 718.766H552.982C563.361 718.766 571.775 710.352 571.775 699.973C571.775 689.594 563.361 681.18 552.982 681.18H465.683Z" fill="#A2D1DB" fill-opacity="0.6"/>
<path d="M913.295 703.839C909.776 703.839 906.923 706.692 906.923 710.211C906.923 713.73 909.776 716.583 913.295 716.583L913.295 703.839ZM974.463 716.583L980.834 716.583L980.834 703.839L974.463 703.839L974.463 716.583ZM913.295 716.583L974.463 716.583L974.463 703.839L913.295 703.839L913.295 716.583Z" fill="#98E0F7"/>
<path d="M950.675 644.371C947.156 644.371 944.303 647.223 944.303 650.742C944.303 654.261 947.156 657.114 950.675 657.114L950.675 644.371ZM974.462 657.114L980.834 657.114L980.834 644.371L974.462 644.371L974.462 657.114ZM950.675 657.114L974.462 657.114L974.462 644.371L950.675 644.371L950.675 657.114Z" fill="#98E0F7"/>
<path d="M936.232 584.902C932.713 584.902 929.861 587.754 929.861 591.273C929.861 594.792 932.713 597.645 936.232 597.645L936.232 584.902ZM974.462 597.645L980.834 597.645L980.834 584.902L974.462 584.902L974.462 597.645ZM936.232 597.645L974.462 597.645L974.462 584.902L936.232 584.902L936.232 597.645Z" fill="#98E0F7"/>
<path d="M1224.66 898.812C1224.66 902.33 1221.8 905.183 1218.28 905.183C1214.76 905.183 1211.91 902.33 1211.91 898.812L1224.66 898.812ZM1211.91 898.812L1211.91 846.139L1224.66 846.139L1224.66 898.812L1211.91 898.812ZM1082.36 716.583L980.409 716.583L980.409 703.839L1082.36 703.839L1082.36 716.583ZM1211.91 846.139C1211.91 774.587 1153.91 716.583 1082.36 716.583L1082.36 703.839C1160.95 703.839 1224.66 767.549 1224.66 846.139L1211.91 846.139Z" fill="#98E0F7"/>
<path d="M1281.58 839.343C1281.58 842.862 1278.72 845.714 1275.2 845.714C1271.68 845.714 1268.83 842.862 1268.83 839.343L1281.58 839.343ZM1268.83 839.343L1268.83 786.671L1281.58 786.671L1281.58 839.343L1268.83 839.343ZM1139.28 657.114L980.409 657.114L980.409 644.371L1139.28 644.371L1139.28 657.114ZM1268.83 786.671C1268.83 715.118 1210.83 657.114 1139.28 657.114L1139.28 644.371C1217.87 644.371 1281.58 708.081 1281.58 786.671L1268.83 786.671Z" fill="#98E0F7"/>
<path d="M1340.62 779.874L1340.62 727.202C1340.62 652.131 1279.76 591.274 1204.69 591.274L980.409 591.273" stroke="#98E0F7" stroke-width="12.7433" stroke-linecap="round"/>
<path d="M913.295 710.211L957.472 710.211" stroke="white" stroke-width="12.7433" stroke-linecap="round"/>
<path d="M982.958 650.742L1057.72 650.742" stroke="white" stroke-width="12.7433" stroke-linecap="round"/>
<path fill-rule="evenodd" clip-rule="evenodd" d="M97 532C97 525.925 92.0751 521 86 521H15C6.71573 521 0 527.716 0 536V536C0 544.284 6.71573 551 15 551H24C30.0751 551 35 555.925 35 562V562C35 568.075 39.9249 573 46 573H196C204.284 573 211 566.284 211 558V558C211 549.716 204.284 543 196 543H108C101.925 543 97 538.075 97 532V532Z" fill="#DFAF67"/>
<path fill-rule="evenodd" clip-rule="evenodd" d="M1236 241C1236 232.716 1229.28 226 1221 226H1094C1085.72 226 1079 232.716 1079 241V241C1079 249.284 1072.28 256 1064 256H1054C1045.72 256 1039 262.716 1039 271V271C1039 279.284 1045.72 286 1054 286H1141C1149.28 286 1156 279.284 1156 271V271C1156 262.716 1162.72 256 1171 256H1221C1229.28 256 1236 249.284 1236 241V241Z" fill="#DFAF67"/>
<path fill-rule="evenodd" clip-rule="evenodd" d="M943 338C943 329.716 936.284 323 928 323H864C857.925 323 853 327.925 853 334V334C853 340.075 848.075 345 842 345H840.5C833.596 345 828 350.596 828 357.5V360C828 368.284 834.716 375 843 375H891C897.075 375 902 370.075 902 364V364C902 357.925 906.925 353 913 353H928C936.284 353 943 346.284 943 338V338Z" fill="#DFAF67"/>
<path fill-rule="evenodd" clip-rule="evenodd" d="M724 36C724 27.7157 730.716 21 739 21H803C809.075 21 814 25.9249 814 32V32C814 38.0751 818.925 43 825 43H826.5C833.404 43 839 48.5964 839 55.5V58C839 66.2843 832.284 73 824 73H776C769.925 73 765 68.0751 765 62V62C765 55.9249 760.075 51 754 51H739C730.716 51 724 44.2843 724 36V36Z" fill="#DFAF67"/>
<path fill-rule="evenodd" clip-rule="evenodd" d="M1022.91 37.0001L1038.81 80.3258C1047.31 103.497 1062.39 123.56 1082.04 138.146C1084.85 136.585 1088.04 135.611 1091.45 135.397L1088.18 142.07C1088.13 142.159 1088.09 142.249 1088.05 142.337C1090.01 143.625 1092.01 144.86 1094.05 146.041L1111.88 156.351C1114.7 154.771 1117.91 153.785 1121.35 153.57L1118.19 160.002L1179.62 195.531L1179.8 164.006C1179.96 135.858 1170.89 109.811 1155.42 88.7384C1153.44 90.1752 1151.3 91.4129 1149.03 92.4245C1148.82 88.9601 1149.41 85.6316 1150.64 82.6217C1144.06 74.7263 1136.54 67.6458 1128.24 61.5554C1127.6 62.1319 1126.93 62.6865 1126.24 63.2177L1120.35 67.7559C1119.83 63.979 1120.28 60.2921 1121.53 56.9528C1102.14 44.5626 1079.14 37.3247 1054.43 37.1821L1022.91 37.0001Z" fill="#DFAF67"/>
<path fill-rule="evenodd" clip-rule="evenodd" d="M1043.67 47L1039.9 92.9961C1037.88 117.595 1028.7 140.951 1013.65 160.248C1010.53 159.492 1007.19 159.403 1003.84 160.108L1008.78 165.667C1008.84 165.741 1008.91 165.815 1008.98 165.889C1007.43 167.653 1005.82 169.378 1004.17 171.06L989.739 185.748C986.601 184.978 983.245 184.882 979.872 185.593L984.628 190.95L934.894 241.568L926.315 211.233C918.655 184.147 920.456 156.624 929.747 132.19C932.043 133.046 934.436 133.668 936.89 134.039C936.175 130.642 934.72 127.591 932.728 125.019C936.962 115.656 942.326 106.827 948.7 98.7447C949.475 99.1285 950.266 99.485 951.072 99.8133L957.956 102.618C957.455 98.8379 956.032 95.406 953.944 92.519C969.323 75.4101 989.566 62.3018 1013.34 55.5787L1043.67 47Z" fill="#DFAF67"/>
<path fill-rule="evenodd" clip-rule="evenodd" d="M1050.53 53.3975L1004.38 52.7677C979.705 52.4309 955.778 44.8634 935.499 31.1588C936.041 27.9944 935.903 24.6626 934.971 21.3676L929.762 26.6704C929.692 26.7413 929.623 26.8125 929.554 26.8839C927.688 25.4584 925.858 23.9778 924.066 22.4432L908.429 9.04651C908.984 5.86312 908.85 2.50857 907.911 -0.808692L902.891 4.30216L849 -41.8662L878.679 -52.4929C905.181 -61.9817 932.763 -62.0609 957.773 -54.4574C957.076 -52.108 956.618 -49.6786 956.415 -47.205C959.755 -48.15 962.7 -49.8098 965.13 -51.9717C974.76 -48.386 983.935 -43.6365 992.432 -37.8285C992.102 -37.0289 991.8 -36.2152 991.528 -35.389L989.199 -28.33C992.936 -29.0873 996.263 -30.7409 999.001 -33.0214C1017.12 -18.8439 1031.58 0.458378 1039.9 23.718L1050.53 53.3975Z" fill="#DFAF67"/>
<path fill-rule="evenodd" clip-rule="evenodd" d="M1020 71.4987L1064.85 60.62C1088.84 54.8019 1110.48 42.1017 1127.2 24.2297C1125.97 21.2652 1125.37 17.9861 1125.54 14.5663L1131.8 18.5776C1131.88 18.6312 1131.97 18.6852 1132.05 18.7395C1133.55 16.9346 1135.01 15.0841 1136.41 13.1894L1148.68 -3.34996C1147.43 -6.33022 1146.81 -9.63046 1146.99 -13.0734L1153.02 -9.20731L1195.29 -66.2063L1163.99 -69.965C1136.05 -73.3212 1109.14 -67.2632 1086.44 -54.2871C1087.65 -52.1516 1088.63 -49.885 1089.38 -47.5184C1085.91 -47.6968 1082.67 -48.66 1079.82 -50.2271C1071.23 -44.5893 1063.34 -37.9179 1056.35 -30.3652C1056.85 -29.659 1057.33 -28.9329 1057.78 -28.188L1061.62 -21.8239C1057.8 -21.7309 1054.19 -22.603 1051.02 -24.2174C1036.51 -6.36516 1026.7 15.6695 1023.76 40.1989L1020 71.4987Z" fill="#DFAF67"/>
<path fill-rule="evenodd" clip-rule="evenodd" d="M1012.91 45.0001L1028.81 88.3258C1037.31 111.497 1052.39 131.56 1072.04 146.146C1074.85 144.585 1078.04 143.611 1081.45 143.397L1078.18 150.07C1078.13 150.159 1078.09 150.249 1078.05 150.337C1080.01 151.625 1082.01 152.86 1084.05 154.041L1101.88 164.351C1104.7 162.771 1107.91 161.785 1111.35 161.57L1108.19 168.002L1169.62 203.531L1169.8 172.006C1169.96 143.858 1160.89 117.811 1145.42 96.7384C1143.44 98.1752 1141.3 99.4129 1139.03 100.425C1138.82 96.9601 1139.41 93.6316 1140.64 90.6217C1134.06 82.7263 1126.54 75.6458 1118.24 69.5554C1117.6 70.1319 1116.93 70.6865 1116.24 71.2177L1110.35 75.7559C1109.83 71.979 1110.28 68.2921 1111.53 64.9528C1092.14 52.5626 1069.14 45.3247 1044.43 45.1821L1012.91 45.0001Z" fill="url(#paint0_linear_592_1107)"/>
<path d="M1163.7 189.373C1148.03 160.782 1097.23 97.4876 1037.44 61.6417" stroke="#0F892C"/>
<path fill-rule="evenodd" clip-rule="evenodd" d="M1035.53 62.3975L989.385 61.7677C964.705 61.4309 940.778 53.8634 920.499 40.1588C921.041 36.9944 920.903 33.6626 919.971 30.3676L914.762 35.6704C914.692 35.7413 914.623 35.8125 914.554 35.8839C912.688 34.4584 910.858 32.9778 909.066 31.4432L893.429 18.0465C893.984 14.8631 893.85 11.5086 892.911 8.19131L887.891 13.3022L834 -32.8662L863.679 -43.4929C890.181 -52.9817 917.763 -53.0609 942.773 -45.4574C942.076 -43.108 941.618 -40.6786 941.415 -38.205C944.755 -39.15 947.7 -40.8098 950.13 -42.9717C959.76 -39.386 968.935 -34.6365 977.432 -28.8285C977.102 -28.0289 976.8 -27.2152 976.528 -26.389L974.199 -19.33C977.936 -20.0873 981.263 -21.7409 984.001 -24.0214C1002.12 -9.84394 1016.58 9.45838 1024.9 32.718L1035.53 62.3975Z" fill="url(#paint1_linear_592_1107)"/>
<path d="M849.319 -31.9781C881.488 -26.6786 958.049 0.256336 1011.7 44.7777" stroke="#0F892C"/>
<path fill-rule="evenodd" clip-rule="evenodd" d="M1015 62.4987L1059.85 51.62C1083.84 45.8019 1105.48 33.1017 1122.2 15.2297C1120.97 12.2652 1120.37 8.98612 1120.54 5.56628L1126.8 9.57756C1126.88 9.63121 1126.97 9.68518 1127.05 9.73947C1128.55 7.93463 1130.01 6.08412 1131.41 4.18941L1143.68 -12.35C1142.43 -15.3302 1141.81 -18.6305 1141.99 -22.0734L1148.02 -18.2073L1190.29 -75.2063L1158.99 -78.965C1131.05 -82.3212 1104.14 -76.2632 1081.44 -63.2871C1082.65 -61.1516 1083.63 -58.885 1084.38 -56.5184C1080.91 -56.6968 1077.67 -57.66 1074.82 -59.2271C1066.23 -53.5893 1058.34 -46.9179 1051.35 -39.3652C1051.85 -38.659 1052.33 -37.9329 1052.78 -37.188L1056.62 -30.8239C1052.8 -30.7309 1049.19 -31.603 1046.02 -33.2174C1031.51 -15.3652 1021.7 6.66952 1018.76 31.1989L1015 62.4987Z" fill="url(#paint2_linear_592_1107)"/>
<path d="M1175.55 -70.9327C1145.37 -58.6105 1076.72 -15.3204 1034.32 40.0188" stroke="#0F892C"/>
<path fill-rule="evenodd" clip-rule="evenodd" d="M1028.67 45L1024.9 90.9961C1022.88 115.595 1013.7 138.951 998.645 158.248C995.525 157.492 992.192 157.403 988.841 158.108L993.776 163.667C993.842 163.741 993.909 163.815 993.975 163.889C992.426 165.653 990.824 167.378 989.171 169.06L974.739 183.748C971.601 182.978 968.245 182.882 964.872 183.593L969.628 188.95L919.894 239.568L911.315 209.233C903.655 182.147 905.456 154.624 914.747 130.19C917.043 131.046 919.436 131.668 921.89 132.039C921.175 128.642 919.72 125.591 917.728 123.019C921.962 113.656 927.326 104.827 933.7 96.7447C934.475 97.1285 935.266 97.485 936.072 97.8133L942.956 100.618C942.455 96.8379 941.032 93.406 938.944 90.519C954.323 73.4101 974.566 60.3018 998.34 53.5787L1028.67 45Z" fill="url(#paint3_linear_592_1107)"/>
<path d="M921.824 224.345C929.304 192.612 961.396 118.065 1009.47 67.5775" stroke="#0F892C"/>
</g>
<defs>
<linearGradient id="paint0_linear_592_1107" x1="1111.6" y1="120.571" x2="1009.03" y2="44.9777" gradientUnits="userSpaceOnUse">
<stop stop-color="#36B732"/>
<stop offset="1" stop-color="#149710"/>
</linearGradient>
<linearGradient id="paint1_linear_592_1107" x1="931.507" y1="-5.64188" x2="1036.84" y2="66.0475" gradientUnits="userSpaceOnUse">
<stop stop-color="#36B732"/>
<stop offset="1" stop-color="#149710"/>
</linearGradient>
<linearGradient id="paint2_linear_592_1107" x1="1101.28" y1="-26.9749" x2="1014.54" y2="66.3479" gradientUnits="userSpaceOnUse">
<stop stop-color="#36B732"/>
<stop offset="1" stop-color="#149710"/>
</linearGradient>
<linearGradient id="paint3_linear_592_1107" x1="953.702" y1="144.144" x2="1032.41" y2="43.945" gradientUnits="userSpaceOnUse">
<stop stop-color="#36B732"/>
<stop offset="1" stop-color="#149710"/>
</linearGradient>
<clipPath id="clip0_592_1107">
<rect width="1200" height="750" fill="white"/>
</clipPath>
</defs>
</svg>
