<svg width="816" height="499" viewBox="0 0 816 499" fill="none" xmlns="http://www.w3.org/2000/svg">
<path d="M748 426.602C410.5 461.247 73 426.602 73 426.602V62C410.5 95.8206 748 62 748 62V426.602Z" fill="#FFF6D7"/>
<path d="M15 61.875H80V431H15V61.875Z" fill="#DFCEA3"/>
<path d="M22.5 61.875H73.125V431H22.5V61.875Z" fill="#EFD8B1"/>
<path d="M55 24.1703C55 29.6281 51.25 33.5266 47.5 33.5266C43.125 33.5266 40 28.8484 40 24.1703V9.35625C40 3.89844 43.75 0 47.5 0C51.875 0 55 4.67813 55 9.35625V24.1703ZM40 474.83C40 469.372 43.75 465.473 47.5 465.473C51.875 465.473 55 470.152 55 474.83V489.644C55 495.102 51.25 499 47.5 499C43.125 499 40 494.322 40 489.644V474.83Z" fill="#89664C"/>
<path d="M81.875 45.2213C81.875 58.476 73.125 69.3917 62.5 69.3917H32.5C21.875 69.3917 13.125 58.476 13.125 45.2213C13.125 31.9667 21.875 21.051 32.5 21.051H62.5C73.125 20.2713 81.875 31.187 81.875 45.2213ZM13.125 453.778C13.125 440.523 21.875 429.607 32.5 429.607H62.5C73.125 429.607 81.875 440.523 81.875 453.778C81.875 467.032 73.125 477.948 62.5 477.948H32.5C21.875 478.728 13.125 467.812 13.125 453.778Z" fill="#A57B5E"/>
<path d="M95 66.273C95 72.5105 91.25 77.1887 86.25 77.1887H8.75001C3.75001 77.1887 0 72.5105 0 66.273C0 60.0355 3.75001 55.3574 8.75001 55.3574H86.25C91.25 56.1371 95 60.8152 95 66.273ZM0 432.726C0 426.489 3.75001 421.811 8.75001 421.811H86.25C91.25 421.811 95 426.489 95 432.726C95 438.964 91.25 443.642 86.25 443.642H8.75001C3.75001 443.642 0 438.184 0 432.726Z" fill="#89664C"/>
<path d="M53.75 24.1703C53.75 29.6281 51.25 33.5266 47.5 33.5266C44.375 33.5266 41.25 28.8484 41.25 24.1703V9.35625C41.25 3.89844 43.75 0 47.5 0C50.625 0 53.75 4.67813 53.75 9.35625V24.1703ZM41.25 474.83C41.25 469.372 43.75 465.473 47.5 465.473C50.625 465.473 53.75 470.152 53.75 474.83V489.644C53.75 495.102 51.25 499 47.5 499C44.375 499 41.25 494.322 41.25 489.644V474.83Z" fill="#A57B5E"/>
<path d="M74.375 45.2213C74.375 58.476 67.5 69.3917 59.375 69.3917H36.25C28.125 69.3917 21.25 58.476 21.25 45.2213C21.25 31.9667 28.125 21.051 36.25 21.051H59.375C67.5 20.2713 74.375 31.187 74.375 45.2213ZM20.625 453.778C20.625 440.523 27.5 429.607 35.625 429.607H58.75C66.875 429.607 73.75 440.523 73.75 453.778C73.75 467.032 66.875 477.948 58.75 477.948H35.625C27.5 478.728 20.625 467.812 20.625 453.778Z" fill="#BF9173"/>
<path d="M84.375 66.273C84.375 72.5105 81.25 77.1887 77.5 77.1887H17.5C13.75 77.1887 10.625 72.5105 10.625 66.273C10.625 60.0355 13.75 55.3574 17.5 55.3574H77.5C81.25 56.1371 84.375 60.8152 84.375 66.273ZM10.625 432.726C10.625 426.489 13.75 421.811 17.5 421.811H77.5C81.25 421.811 84.375 426.489 84.375 432.726C84.375 438.964 81.25 443.642 77.5 443.642H17.5C13.75 443.642 10.625 438.184 10.625 432.726Z" fill="#A57B5E"/>
<path d="M736 61.875H801V431H736V61.875Z" fill="#DFCEA3"/>
<path d="M743.5 61.875H794.125V431H743.5V61.875Z" fill="#EFD8B1"/>
<path d="M776 24.1703C776 29.6281 772.25 33.5266 768.5 33.5266C764.125 33.5266 761 28.8484 761 24.1703V9.35625C761 3.89844 764.75 0 768.5 0C772.875 0 776 4.67813 776 9.35625V24.1703ZM761 474.83C761 469.372 764.75 465.473 768.5 465.473C772.875 465.473 776 470.152 776 474.83V489.644C776 495.102 772.25 499 768.5 499C764.125 499 761 494.322 761 489.644V474.83Z" fill="#89664C"/>
<path d="M802.875 45.2213C802.875 58.476 794.125 69.3917 783.5 69.3917H753.5C742.875 69.3917 734.125 58.476 734.125 45.2213C734.125 31.9667 742.875 21.051 753.5 21.051H783.5C794.125 20.2713 802.875 31.187 802.875 45.2213ZM734.125 453.778C734.125 440.523 742.875 429.607 753.5 429.607H783.5C794.125 429.607 802.875 440.523 802.875 453.778C802.875 467.032 794.125 477.948 783.5 477.948H753.5C742.875 478.728 734.125 467.812 734.125 453.778Z" fill="#A57B5E"/>
<path d="M816 66.273C816 72.5105 812.25 77.1887 807.25 77.1887H729.75C724.75 77.1887 721 72.5105 721 66.273C721 60.0355 724.75 55.3574 729.75 55.3574H807.25C812.25 56.1371 816 60.8152 816 66.273ZM721 432.726C721 426.489 724.75 421.811 729.75 421.811H807.25C812.25 421.811 816 426.489 816 432.726C816 438.964 812.25 443.642 807.25 443.642H729.75C724.75 443.642 721 438.184 721 432.726Z" fill="#89664C"/>
<path d="M774.75 24.1703C774.75 29.6281 772.25 33.5266 768.5 33.5266C765.375 33.5266 762.25 28.8484 762.25 24.1703V9.35625C762.25 3.89844 764.75 0 768.5 0C771.625 0 774.75 4.67813 774.75 9.35625V24.1703ZM762.25 474.83C762.25 469.372 764.75 465.473 768.5 465.473C771.625 465.473 774.75 470.152 774.75 474.83V489.644C774.75 495.102 772.25 499 768.5 499C765.375 499 762.25 494.322 762.25 489.644V474.83Z" fill="#A57B5E"/>
<path d="M795.375 45.2213C795.375 58.476 788.5 69.3917 780.375 69.3917H757.25C749.125 69.3917 742.25 58.476 742.25 45.2213C742.25 31.9667 749.125 21.051 757.25 21.051H780.375C788.5 20.2713 795.375 31.187 795.375 45.2213ZM741.625 453.778C741.625 440.523 748.5 429.607 756.625 429.607H779.75C787.875 429.607 794.75 440.523 794.75 453.778C794.75 467.032 787.875 477.948 779.75 477.948H756.625C748.5 478.728 741.625 467.812 741.625 453.778Z" fill="#BF9173"/>
<path d="M805.375 66.273C805.375 72.5105 802.25 77.1887 798.5 77.1887H738.5C734.75 77.1887 731.625 72.5105 731.625 66.273C731.625 60.0355 734.75 55.3574 738.5 55.3574H798.5C802.25 56.1371 805.375 60.8152 805.375 66.273ZM731.625 432.726C731.625 426.489 734.75 421.811 738.5 421.811H798.5C802.25 421.811 805.375 426.489 805.375 432.726C805.375 438.964 802.25 443.642 798.5 443.642H738.5C734.75 443.642 731.625 438.184 731.625 432.726Z" fill="#A57B5E"/>
</svg>
