<svg width="1200" height="750" viewBox="0 0 1200 750" fill="none" xmlns="http://www.w3.org/2000/svg">
<g clip-path="url(#clip0_688_1201)">
<rect width="1200" height="750" fill="url(#paint0_linear_688_1201)"/>
<rect y="132" width="1200" height="65" fill="#929DAF"/>
<rect y="-18" width="1200" height="150" fill="#C5C5C5"/>
<rect y="437" width="1200" height="313" fill="#E0C0A0"/>
<path fill-rule="evenodd" clip-rule="evenodd" d="M-304.277 666.477L-299.398 665.382C-301.115 657.727 -302 649.924 -302 642C-302 634.076 -301.115 626.273 -299.398 618.618L-304.277 617.523C-306.073 625.531 -307 633.701 -307 642C-307 650.299 -306.073 658.469 -304.277 666.477ZM-284.26 572.753L-280.137 575.581C-271.6 563.135 -260.709 551.323 -247.736 540.352L-250.965 536.535C-264.231 547.754 -275.438 559.891 -284.26 572.753ZM-210.369 508.607L-207.916 512.963C-194.39 505.346 -179.663 498.441 -163.91 492.362L-165.71 487.697C-181.672 493.857 -196.618 500.862 -210.369 508.607ZM-118.676 472.791L-117.445 477.638C-102.103 473.742 -86.1078 470.564 -69.5808 468.177L-70.2958 463.228C-86.992 465.64 -103.159 468.852 -118.676 472.791ZM-21.1902 458.573C-13.0445 458.193 -4.81033 458 3.5 458C11.8103 458 20.0444 458.193 28.1901 458.573L27.9573 463.568C19.8892 463.192 11.7328 463 3.5 463C-4.73276 463 -12.8892 463.192 -20.9573 463.568L-21.1902 458.573ZM77.2958 463.228L76.5808 468.177C93.1079 470.564 109.103 473.742 124.445 477.638L125.676 472.791C110.159 468.852 93.992 465.64 77.2958 463.228ZM172.71 487.697L170.91 492.362C186.663 498.441 201.39 505.346 214.916 512.963L217.369 508.607C203.619 500.862 188.672 493.857 172.71 487.697ZM257.965 536.535L254.736 540.352C267.709 551.323 278.6 563.135 287.137 575.581L291.261 572.753C282.438 559.891 271.231 547.754 257.965 536.535ZM311.277 617.523C313.073 625.531 314 633.701 314 642C314 650.299 313.073 658.469 311.277 666.477L306.398 665.382C308.115 657.727 309 649.924 309 642C309 634.076 308.115 626.273 306.398 618.618L311.277 617.523ZM291.261 711.247L287.137 708.419C278.6 720.865 267.709 732.677 254.736 743.648L257.965 747.465C271.231 736.246 282.438 724.109 291.261 711.247ZM217.369 775.393L214.916 771.037C201.39 778.654 186.663 785.559 170.91 791.638L172.71 796.303C188.672 790.143 203.619 783.138 217.369 775.393ZM125.676 811.209C110.159 815.148 93.992 818.36 77.2958 820.772L76.5808 815.823C93.1079 813.436 109.103 810.258 124.445 806.362L125.676 811.209ZM28.1901 825.427L27.9573 820.432C19.8892 820.808 11.7328 821 3.5 821C-4.73276 821 -12.8892 820.808 -20.9573 820.432L-21.1901 825.427C-13.0444 825.807 -4.81033 826 3.5 826C11.8103 826 20.0444 825.807 28.1901 825.427ZM-70.2958 820.772L-69.5808 815.823C-86.1079 813.436 -102.103 810.258 -117.445 806.362L-118.676 811.209C-103.159 815.148 -86.992 818.36 -70.2958 820.772ZM-165.71 796.303L-163.91 791.638C-179.663 785.559 -194.39 778.654 -207.916 771.037L-210.369 775.393C-196.619 783.138 -181.672 790.143 -165.71 796.303ZM-250.965 747.465L-247.736 743.648C-260.709 732.677 -271.6 720.865 -280.137 708.419L-284.26 711.247C-275.438 724.109 -264.231 736.246 -250.965 747.465Z" fill="white"/>
<path fill-rule="evenodd" clip-rule="evenodd" d="M888.723 666.477L893.602 665.382C891.885 657.727 891 649.924 891 642C891 634.076 891.885 626.273 893.602 618.618L888.723 617.523C886.927 625.531 886 633.701 886 642C886 650.299 886.927 658.469 888.723 666.477ZM908.739 572.753L912.863 575.581C921.4 563.135 932.291 551.323 945.264 540.352L942.035 536.535C928.769 547.754 917.562 559.891 908.739 572.753ZM982.631 508.607L985.084 512.963C998.61 505.346 1013.34 498.441 1029.09 492.362L1027.29 487.697C1011.33 493.857 996.381 500.862 982.631 508.607ZM1074.32 472.791L1075.55 477.638C1090.9 473.742 1106.89 470.564 1123.42 468.177L1122.7 463.228C1106.01 465.64 1089.84 468.852 1074.32 472.791ZM1171.81 458.573C1179.96 458.193 1188.19 458 1196.5 458C1204.81 458 1213.04 458.193 1221.19 458.573L1220.96 463.568C1212.89 463.192 1204.73 463 1196.5 463C1188.27 463 1180.11 463.192 1172.04 463.568L1171.81 458.573ZM1270.3 463.228L1269.58 468.177C1286.11 470.564 1302.1 473.742 1317.45 477.638L1318.68 472.791C1303.16 468.852 1286.99 465.64 1270.3 463.228ZM1365.71 487.697L1363.91 492.362C1379.66 498.441 1394.39 505.346 1407.92 512.963L1410.37 508.607C1396.62 500.862 1381.67 493.857 1365.71 487.697ZM1450.97 536.535L1447.74 540.352C1460.71 551.323 1471.6 563.135 1480.14 575.581L1484.26 572.753C1475.44 559.891 1464.23 547.754 1450.97 536.535ZM1504.28 617.523C1506.07 625.531 1507 633.701 1507 642C1507 650.299 1506.07 658.469 1504.28 666.477L1499.4 665.382C1501.12 657.727 1502 649.924 1502 642C1502 634.076 1501.12 626.273 1499.4 618.618L1504.28 617.523ZM1484.26 711.247L1480.14 708.419C1471.6 720.865 1460.71 732.677 1447.74 743.648L1450.96 747.465C1464.23 736.246 1475.44 724.109 1484.26 711.247ZM1410.37 775.393L1407.92 771.037C1394.39 778.654 1379.66 785.559 1363.91 791.638L1365.71 796.303C1381.67 790.143 1396.62 783.138 1410.37 775.393ZM1318.68 811.209C1303.16 815.148 1286.99 818.36 1270.3 820.772L1269.58 815.823C1286.11 813.436 1302.1 810.258 1317.45 806.362L1318.68 811.209ZM1221.19 825.427L1220.96 820.432C1212.89 820.808 1204.73 821 1196.5 821C1188.27 821 1180.11 820.808 1172.04 820.432L1171.81 825.427C1179.96 825.807 1188.19 826 1196.5 826C1204.81 826 1213.04 825.807 1221.19 825.427ZM1122.7 820.772L1123.42 815.823C1106.89 813.436 1090.9 810.258 1075.55 806.362L1074.32 811.209C1089.84 815.148 1106.01 818.36 1122.7 820.772ZM1027.29 796.303L1029.09 791.638C1013.34 785.559 998.61 778.654 985.084 771.037L982.631 775.393C996.381 783.138 1011.33 790.143 1027.29 796.303ZM942.035 747.465L945.264 743.648C932.291 732.677 921.4 720.865 912.863 708.419L908.739 711.247C917.562 724.109 928.769 736.246 942.035 747.465Z" fill="white"/>
<rect x="593" y="437" width="20" height="313" fill="white"/>
</g>
<defs>
<linearGradient id="paint0_linear_688_1201" x1="600" y1="-172.5" x2="600" y2="750" gradientUnits="userSpaceOnUse">
<stop stop-color="#447FDE"/>
<stop offset="0.64" stop-color="#254578"/>
</linearGradient>
<clipPath id="clip0_688_1201">
<rect width="1200" height="750" fill="white"/>
</clipPath>
</defs>
</svg>
